<?xml version="1.0" encoding="UTF-8" standalone="no"?>
<!-- Generator: Adobe Illustrator 19.2.0, SVG Export Plug-In . SVG Version: 6.00 Build 0)  -->

<svg
   xmlns:dc="http://purl.org/dc/elements/1.1/"
   xmlns:cc="http://creativecommons.org/ns#"
   xmlns:rdf="http://www.w3.org/1999/02/22-rdf-syntax-ns#"
   xmlns:svg="http://www.w3.org/2000/svg"
   xmlns="http://www.w3.org/2000/svg"
   xmlns:sodipodi="http://sodipodi.sourceforge.net/DTD/sodipodi-0.dtd"
   xmlns:inkscape="http://www.inkscape.org/namespaces/inkscape"
   version="1.1"
   id="Calque_1"
   x="0px"
   y="0px"
   width="570.20001"
   height="311.5"
   viewBox="0 0 570.20002 311.49999"
   xml:space="preserve"
   sodipodi:docname="logo-sonel-no-cible.svg"
   inkscape:version="0.92.2 (5c3e80d, 2017-08-06)"><metadata
     id="metadata69"><rdf:RDF><cc:Work
         rdf:about=""><dc:format>image/svg+xml</dc:format><dc:type
           rdf:resource="http://purl.org/dc/dcmitype/StillImage" /><dc:title></dc:title></cc:Work></rdf:RDF></metadata><defs
     id="defs67" /><sodipodi:namedview
     pagecolor="#ffffff"
     bordercolor="#666666"
     borderopacity="1"
     objecttolerance="10"
     gridtolerance="10"
     guidetolerance="10"
     inkscape:pageopacity="0"
     inkscape:pageshadow="2"
     inkscape:window-width="1920"
     inkscape:window-height="1137"
     id="namedview65"
     showgrid="false"
     fit-margin-top="0"
     fit-margin-left="0"
     fit-margin-right="0"
     fit-margin-bottom="0"
     inkscape:zoom="1.1212733"
     inkscape:cx="64.475515"
     inkscape:cy="228.06578"
     inkscape:window-x="1912"
     inkscape:window-y="-4"
     inkscape:window-maximized="1"
     inkscape:current-layer="Calque_1" /><style
     type="text/css"
     id="style2">
	.st0{opacity:0.53;fill:#FFFFFF;}
	.st1{fill:none;stroke:#AFBAD0;stroke-width:3.6331;}
	.st2{fill:#B98531;}
	.st3{fill:#68BAE4;}
</style><g
     id="g48"
     transform="translate(-14.8,-325.6)"><path
       style="fill:#b98531"
       inkscape:connector-curvature="0"
       id="path44"
       d="m 181.3,502.7 c 0,0 3.5,-85.1 94.2,-96.8 90.7,-11.6 110.1,1.6 143.1,-47 0,0 7.9,82.2 -73.6,97.8 -81.5,15.5 -118.8,-32.3 -163.7,46 z"
       class="st2" /><path
       style="fill:#68bae4"
       inkscape:connector-curvature="0"
       id="path46"
       d="m 179.2,469.3 c 0,0 3.5,-85.1 94.2,-96.8 90.7,-11.6 110.1,1.6 143.1,-46.9 0,0 7.9,82.2 -73.6,97.7 -81.6,15.6 -118.8,-32.2 -163.7,46 z"
       class="st3" /></g><g
     id="g60"
     transform="translate(-14.8,-325.6)"><path
       style="fill:#b98531"
       inkscape:connector-curvature="0"
       id="path50"
       d="M 117.8,542.4 H 93.5 c -0.1,-1.2 -0.2,-2.1 -0.2,-2.7 -0.6,-7.4 -2.2,-12 -4.9,-13.9 -2.7,-1.9 -9.1,-2.8 -19.1,-2.8 -11.8,0 -19.5,1.1 -23.2,3.3 -3.6,2.2 -5.4,6.8 -5.4,13.8 0,8.3 1.5,13.2 4.4,14.9 3,1.7 12.7,3 29.3,3.8 19.6,1.1 32.2,3.9 38,8.4 5.7,4.5 8.6,13.8 8.6,28 0,17.4 -3.4,28.7 -10.1,33.8 -6.7,5.1 -21.6,7.6 -44.6,7.6 -20.7,0 -34.4,-2.5 -41.2,-7.5 -6.8,-5 -10.2,-15.1 -10.2,-30.4 l -0.1,-4.8 h 24.3 l 0.1,2.8 c 0,9.1 1.6,14.7 4.8,16.8 3.2,2 12,3.1 26.3,3.1 11.2,0 18.3,-1.2 21.4,-3.6 3.1,-2.4 4.6,-7.8 4.6,-16.5 0,-6.3 -1.2,-10.6 -3.5,-12.6 -2.3,-2.1 -7.4,-3.4 -15.2,-3.8 l -13.6,-1 c -20.8,-1.2 -34.1,-4.1 -39.8,-8.7 -5.8,-4.6 -8.7,-14.3 -8.7,-29.3 0,-15.3 3.5,-25.5 10.4,-30.6 7,-5.1 20.9,-7.6 41.7,-7.6 19.8,0 33.1,2.3 39.9,7 6.9,4.7 10.3,13.9 10.3,27.5 z"
       class="st2" /><path
       style="fill:#b98531"
       inkscape:connector-curvature="0"
       id="path52"
       d="m 190.2,504.8 c 23.6,0 38.8,3.9 45.6,11.8 6.8,7.8 10.2,25.4 10.2,52.6 0,29.8 -3.4,48.5 -10.2,56.3 -6.8,7.7 -23.3,11.6 -49.5,11.6 -23.6,0 -38.9,-3.8 -45.8,-11.5 -6.9,-7.6 -10.4,-24.5 -10.4,-50.5 0,-31 3.4,-50.4 10.2,-58.4 6.7,-7.9 23.3,-11.9 49.9,-11.9 z m -1.9,21.2 c -16.6,0 -26.3,2.1 -29.1,6.4 -2.8,4.2 -4.2,18.9 -4.2,44.1 0,18.6 1.6,29.8 4.9,33.6 3.3,3.8 12.9,5.7 28.9,5.7 15.3,0 24.5,-2.1 27.5,-6.4 3,-4.3 4.6,-17.2 4.6,-38.9 0,-21.7 -1.4,-34.6 -4.3,-38.5 -2.9,-4 -12.3,-6 -28.3,-6 z"
       class="st2" /><path
       style="fill:#b98531"
       inkscape:connector-curvature="0"
       id="path54"
       d="m 379.8,504.1 v 130 H 338 l -37,-71.4 c -1.8,-3.6 -4.7,-9.8 -8.6,-18.7 l -4.2,-9.3 -4.1,-9.3 h -1 l 0.4,8.6 0.3,8.5 0.2,17.1 v 74.6 h -24.8 v -130 H 301 l 33.7,65.9 c 3,5.8 6.4,12.9 10.3,21.3 l 4.9,10.6 4.9,10.7 h 0.9 l -0.3,-8.4 -0.3,-8.4 L 355,579 v -74.9 z"
       class="st2" /><path
       style="fill:#b98531"
       inkscape:connector-curvature="0"
       id="path56"
       d="m 419.7,524.9 v 33.6 h 60.8 v 18.1 h -60.8 v 36.7 h 64.8 v 20.8 h -89.6 v -130 h 88.9 v 20.8 z"
       class="st2" /><path
       style="fill:#b98531"
       inkscape:connector-curvature="0"
       id="path58"
       d="M 524.2,502.4 V 610.3 H 585 v 22.1 h -85.6 v -130 z"
       class="st2" /></g></svg>